<svg width="27" height="27" viewBox="0 0 27 27" fill="none" xmlns="http://www.w3.org/2000/svg">
<path d="M25.7723 14.7271C25.4041 14.7271 25.1587 14.9725 25.1587 15.3407V23.318C25.1587 23.6861 24.9132 23.9316 24.5451 23.9316H2.45413C2.08594 23.9316 1.84052 23.6861 1.84052 23.318V15.3407C1.84052 14.9725 1.59504 14.7271 1.2269 14.7271C0.85876 14.7271 0.613281 14.9725 0.613281 15.3407V23.318C0.613281 24.3611 1.41099 25.1589 2.45419 25.1589H24.5451C25.5883 25.1589 26.386 24.3611 26.386 23.318V15.3407C26.386 14.9725 26.1405 14.7271 25.7723 14.7271Z" fill="#535353"/>
<path d="M25.1591 6.13635H1.8409C0.797713 6.13635 0 6.93407 0 7.97726V11.9045C0 12.7636 0.613617 13.5 1.41138 13.6841L11.0455 15.8318V17.7954C11.0455 18.1636 11.291 18.409 11.6591 18.409H15.3409C15.7091 18.409 15.9545 18.1635 15.9545 17.7954V15.8318L25.5886 13.6841C26.3864 13.5 27 12.7636 27 11.9045V7.9772C27 6.93407 26.2023 6.13635 25.1591 6.13635ZM14.7273 17.1818H12.2728V14.7273H14.7273V17.1818ZM25.7727 11.9045C25.7727 12.2113 25.5886 12.4568 25.2818 12.5181L15.9545 14.6045V14.1136C15.9545 13.7454 15.709 13.5 15.3409 13.5H11.6591C11.2909 13.5 11.0455 13.7454 11.0455 14.1136V14.6045L1.71819 12.5182C1.41138 12.4568 1.22729 12.2114 1.22729 11.9045V7.97726C1.22729 7.60907 1.47277 7.36364 1.8409 7.36364H25.1591C25.5273 7.36364 25.7727 7.60912 25.7727 7.97726V11.9045Z" fill="#535353"/>
<path d="M16.5691 1.84088H10.4327C9.38951 1.84088 8.5918 2.63859 8.5918 3.68179V4.2954C8.5918 4.66359 8.83728 4.90902 9.20541 4.90902C9.57355 4.90902 9.81903 4.66354 9.81903 4.2954V3.68179C9.81903 3.31359 10.0645 3.06817 10.4326 3.06817H16.569C16.9372 3.06817 17.1826 3.31365 17.1826 3.68179V4.2954C17.1826 4.66359 17.4281 4.90902 17.7963 4.90902C18.1645 4.90902 18.4099 4.66354 18.4099 4.2954V3.68179C18.41 2.63859 17.6123 1.84088 16.5691 1.84088Z" fill="#535353"/>
</svg>
