<svg width="22" height="22" viewBox="0 0 22 22" fill="none" xmlns="http://www.w3.org/2000/svg">
<path fill-rule="evenodd" clip-rule="evenodd" d="M1.16307 15.9243C0.418732 14.443 0 12.7695 0 11C0 9.23047 0.418732 7.557 1.16307 6.07567C2.97073 2.47354 6.699 0 11 0C15.301 0 19.0293 2.47354 20.8369 6.07567C21.5813 7.557 22 9.23047 22 11C22 12.7695 21.5813 14.443 20.8369 15.9243C19.0293 19.5265 15.301 22 11 22C6.699 22 2.97073 19.5265 1.16307 15.9243ZM2.18973 7.35313C1.72407 8.4766 1.46667 9.7086 1.46667 11C1.46667 12.2914 1.72407 13.5234 2.18973 14.6469C3.38727 14.1827 4.79893 13.8101 6.35727 13.5593C6.2766 12.7395 6.23333 11.8822 6.23333 11C6.23333 10.1178 6.2766 9.26054 6.35727 8.44067C4.79893 8.18987 3.38727 7.81733 2.18973 7.35313ZM19.1407 6.03973C17.9271 4.05313 16.0072 2.5454 13.7317 1.86487C13.8336 2.02327 13.9326 2.1912 14.0279 2.36867C14.6535 3.53687 15.1536 5.1326 15.4543 6.9872C16.8241 6.765 18.0715 6.4416 19.1407 6.03973ZM8.26833 1.86487C5.9928 2.5454 4.07294 4.05313 2.85927 6.03973C3.92847 6.44233 5.17587 6.765 6.54574 6.9872C6.8464 5.1326 7.34654 3.53687 7.97207 2.36867C8.0674 2.1912 8.1664 2.02327 8.26833 1.86487ZM19.8103 14.6469C20.2759 13.5234 20.5333 12.2914 20.5333 11C20.5333 9.7086 20.2759 8.4766 19.8103 7.35313C18.6127 7.81733 17.2011 8.18987 15.6427 8.44067C15.7234 9.26054 15.7667 10.1178 15.7667 11C15.7667 11.8822 15.7234 12.7395 15.6427 13.5593C17.2011 13.8101 18.6127 14.1827 19.8103 14.6469ZM2.85927 15.9603C4.07294 17.9469 5.9928 19.4546 8.26833 20.1351C8.1664 19.9767 8.0674 19.8088 7.97207 19.6313C7.34654 18.4631 6.8464 16.8674 6.54574 15.0128C5.17587 15.235 3.92847 15.5584 2.85927 15.9603ZM13.7317 20.1351C16.0072 19.4546 17.9271 17.9469 19.1407 15.9603C18.0715 15.5584 16.8241 15.235 15.4543 15.0128C15.1536 16.8674 14.6535 18.4631 14.0279 19.6313C13.9326 19.8088 13.8336 19.9767 13.7317 20.1351ZM11 1.46667C10.7177 1.46667 10.4537 1.60086 10.1999 1.81646C9.85966 2.1054 9.54874 2.53147 9.26494 3.06167C8.70467 4.1074 8.26467 5.52933 7.99627 7.18007C8.95693 7.28053 9.96307 7.33333 11 7.33333C12.0369 7.33333 13.0431 7.2798 14.0037 7.18007C13.7353 5.52933 13.2953 4.1074 12.7351 3.06167C12.4513 2.53147 12.1403 2.1054 11.8001 1.81646C11.5463 1.60086 11.2823 1.46667 11 1.46667ZM11 20.5333C11.2823 20.5333 11.5463 20.3991 11.8001 20.1835C12.1403 19.8946 12.4513 19.4685 12.7351 18.9383C13.2953 17.8926 13.7353 16.4707 14.0037 14.8199C13.0431 14.7202 12.0369 14.6667 11 14.6667C9.96307 14.6667 8.95693 14.7202 7.99627 14.8199C8.26467 16.4707 8.70467 17.8926 9.26494 18.9383C9.54874 19.4685 9.85966 19.8946 10.1999 20.1835C10.4537 20.3991 10.7177 20.5333 11 20.5333ZM14.19 13.3665C14.2619 12.6082 14.3 11.8155 14.3 11C14.3 10.1845 14.2619 9.3918 14.19 8.63354C13.1699 8.74207 12.1007 8.8 11 8.8C9.89927 8.8 8.83007 8.74207 7.81 8.63354C7.73813 9.3918 7.7 10.1845 7.7 11C7.7 11.8155 7.73813 12.6082 7.81 13.3665C8.83007 13.2579 9.89927 13.2 11 13.2C12.1007 13.2 13.1699 13.2579 14.19 13.3665Z" fill="#535353"/>
</svg>
