<svg width="34" height="34" viewBox="0 0 34 34" fill="none" xmlns="http://www.w3.org/2000/svg">
<rect width="33.1749" height="33.1749" rx="3.6861" fill="#BFE2C4"/>
<path d="M26.109 12.1962C26.1152 11.9144 26.0336 11.6378 25.8755 11.4047C25.7173 11.1716 25.4904 10.9936 25.2265 10.8954C24.9626 10.7973 24.6747 10.7839 24.4028 10.8571C24.1309 10.9303 23.8887 11.0864 23.7096 11.3038L16.6089 19.5994L9.51062 11.3038C9.40018 11.1535 9.25996 11.0275 9.09863 10.9339C8.9373 10.8403 8.75834 10.781 8.57305 10.7598C8.38777 10.7385 8.20015 10.7558 8.02186 10.8106C7.84356 10.8653 7.67843 10.9563 7.5369 11.0778C7.39537 11.1994 7.28057 11.3489 7.19943 11.5169C7.1183 11.685 7.07273 11.868 7.06554 12.0545C7.05835 12.241 7.08961 12.427 7.15756 12.6008C7.22552 12.7746 7.32859 12.9325 7.46035 13.0646L15.5797 22.5623C15.7069 22.7114 15.8648 22.8312 16.0427 22.9133C16.2206 22.9954 16.4142 23.038 16.6101 23.038C16.806 23.038 16.9997 22.9954 17.1776 22.9133C17.3555 22.8312 17.5135 22.7114 17.6406 22.5623L25.7678 13.0646C25.9808 12.8247 26.1015 12.517 26.109 12.1962Z" fill="white"/>
</svg>
