<svg width="18" height="12" viewBox="0 0 18 12" fill="none" xmlns="http://www.w3.org/2000/svg">
<path d="M17.9997 1.41142C18.0055 1.13629 17.9284 0.866105 17.7789 0.638435C17.6294 0.410765 17.415 0.236921 17.1655 0.141072C16.9161 0.0452235 16.644 0.0321331 16.3871 0.10362C16.1301 0.175108 15.9011 0.32762 15.7319 0.539955L9.0207 8.64174L2.31189 0.539955C2.20751 0.393073 2.07498 0.270062 1.9225 0.178627C1.77002 0.0871914 1.60088 0.0293017 1.42576 0.00858194C1.25064 -0.0121378 1.07331 0.00475936 0.904804 0.0582151C0.736294 0.111671 0.580221 0.200533 0.446457 0.319238C0.312691 0.437943 0.204185 0.583933 0.127502 0.748065C0.0508194 0.912197 0.00774957 1.09094 0.000953688 1.27309C-0.00584029 1.45524 0.0237026 1.63688 0.0879288 1.80663C0.152155 1.97639 0.249578 2.1306 0.374102 2.25961L8.04804 11.5354C8.16824 11.6811 8.31743 11.7981 8.48557 11.8783C8.65371 11.9585 8.83672 12 9.02188 12C9.20705 12 9.39006 11.9585 9.5582 11.8783C9.72634 11.7981 9.87567 11.6811 9.99587 11.5354L17.6772 2.25961C17.8784 2.02529 17.9926 1.72474 17.9997 1.41142Z" fill="black"/>
</svg>
