<svg width="1920" height="1053" viewBox="0 0 1920 1053" fill="none" xmlns="http://www.w3.org/2000/svg">
<path d="M0.800781 58.164C0.800781 58.164 15.1948 47.529 19.3264 30.1978C23.458 12.8666 38.785 1.3125 38.785 1.3125" stroke="#E3EDFF" stroke-width="2" stroke-miterlimit="10"/>
<path d="M0.800781 105.431C0.800781 105.431 50.1136 90.463 63.1748 52.7808C75.7029 16.149 126.348 1.3125 126.348 1.3125" stroke="#E3EDFF" stroke-width="2" stroke-miterlimit="10"/>
<path d="M0.800781 152.698C0.800781 152.698 85.0324 133.397 106.89 75.4952C127.948 19.694 213.912 1.3125 213.912 1.3125" stroke="#E3EDFF" stroke-width="2" stroke-miterlimit="10"/>
<path d="M0.800781 200.096C0.800781 200.096 119.818 176.331 150.738 98.2095C180.193 23.1078 301.342 1.3125 301.342 1.3125" stroke="#E3EDFF" stroke-width="2" stroke-miterlimit="10"/>
<path d="M0.800781 247.363C0.800781 247.363 154.737 219.265 194.453 120.924C232.438 26.6528 388.906 1.3125 388.906 1.3125" stroke="#E3EDFF" stroke-width="2" stroke-miterlimit="10"/>
<path d="M0.800781 294.629C0.800781 294.629 189.655 262.199 238.302 143.507C284.682 30.1978 476.469 1.3125 476.469 1.3125" stroke="#E3EDFF" stroke-width="2" stroke-miterlimit="10"/>
<path d="M0.800781 342.028C0.800781 342.028 224.441 305.133 282.017 166.353C336.927 33.6115 564.033 1.3125 564.033 1.3125" stroke="#E3EDFF" stroke-width="2" stroke-miterlimit="10"/>
<path d="M0.800781 389.294C0.800781 389.294 259.36 348.067 325.865 188.936C389.172 37.1565 651.596 1.3125 651.596 1.3125" stroke="#E3EDFF" stroke-width="2" stroke-miterlimit="10"/>
<path d="M0.800781 436.561C0.800781 436.561 294.278 391.001 369.714 211.65C441.417 40.7015 739.027 1.3125 739.027 1.3125" stroke="#E3EDFF" stroke-width="2" stroke-miterlimit="10"/>
<path d="M0.800781 483.959C0.800781 483.959 329.064 434.067 413.429 234.364C493.795 44.1152 826.59 1.3125 826.59 1.3125" stroke="#E3EDFF" stroke-width="2" stroke-miterlimit="10"/>
<path d="M0.800781 531.226C0.800781 531.226 363.983 476.869 457.277 257.079C546.04 47.6603 914.154 1.3125 914.154 1.3125" stroke="#E3EDFF" stroke-width="2" stroke-miterlimit="10"/>
<path d="M0.800781 578.493C0.800781 578.493 398.902 519.803 500.992 279.662C598.285 51.2053 1001.72 1.3125 1001.72 1.3125" stroke="#E3EDFF" stroke-width="2" stroke-miterlimit="10"/>
<path d="M0.800781 625.891C0.800781 625.891 433.687 562.869 544.841 302.507C650.53 54.619 1089.15 1.3125 1089.15 1.3125" stroke="#E3EDFF" stroke-width="2" stroke-miterlimit="10"/>
<path d="M0.800781 673.158C0.800781 673.158 468.606 605.803 588.556 325.222C702.775 58.164 1176.71 1.3125 1176.71 1.3125" stroke="#E3EDFF" stroke-width="2" stroke-miterlimit="10"/>
<path d="M0.800781 720.556C0.800781 720.556 503.525 648.737 632.404 347.936C755.02 61.709 1264.27 1.3125 1264.27 1.3125" stroke="#E3EDFF" stroke-width="2" stroke-miterlimit="10"/>
<path d="M0.800781 767.823C0.800781 767.823 538.31 691.671 676.119 370.65C807.265 65.1227 1351.84 1.3125 1351.84 1.3125" stroke="#E3EDFF" stroke-width="2" stroke-miterlimit="10"/>
<path d="M0.800781 815.09C0.800781 815.09 573.229 734.605 719.968 393.233C859.51 68.6677 1439.4 1.3125 1439.4 1.3125" stroke="#E3EDFF" stroke-width="2" stroke-miterlimit="10"/>
<path d="M0.800781 862.488C0.800781 862.488 608.148 777.539 763.816 416.079C911.755 72.2127 1526.83 1.3125 1526.83 1.3125" stroke="#E3EDFF" stroke-width="2" stroke-miterlimit="10"/>
<path d="M0.800781 909.755C0.800781 909.755 642.933 820.473 807.531 438.662C964 75.6265 1614.4 1.3125 1614.4 1.3125" stroke="#E3EDFF" stroke-width="2" stroke-miterlimit="10"/>
<path d="M0.800781 957.022C0.800781 957.022 677.852 863.407 851.38 461.376C1016.24 79.1715 1701.96 1.3125 1701.96 1.3125" stroke="#E3EDFF" stroke-width="2" stroke-miterlimit="10"/>
<path d="M0.800781 1004.42C0.800781 1004.42 712.771 906.472 895.095 484.091C1068.49 82.7165 1789.52 1.3125 1789.52 1.3125" stroke="#E3EDFF" stroke-width="2" stroke-miterlimit="10"/>
<path d="M0.800781 1051.69C0.800781 1051.69 747.556 949.275 938.943 506.805C1120.73 86.1302 1876.95 1.3125 1876.95 1.3125" stroke="#E3EDFF" stroke-width="2" stroke-miterlimit="10"/>
<path d="M1915.07 994.836C1915.07 994.836 1900.68 1005.47 1896.54 1022.8C1892.41 1040.26 1877.09 1051.56 1877.09 1051.56" stroke="#E3EDFF" stroke-width="2" stroke-miterlimit="10"/>
<path d="M1915.07 947.568C1915.07 947.568 1865.76 962.536 1852.7 1000.22C1840.17 1036.85 1789.52 1051.69 1789.52 1051.69" stroke="#E3EDFF" stroke-width="2" stroke-miterlimit="10"/>
<path d="M1915.07 900.301C1915.07 900.301 1830.84 919.601 1808.98 977.503C1787.79 1033.3 1701.96 1051.69 1701.96 1051.69" stroke="#E3EDFF" stroke-width="2" stroke-miterlimit="10"/>
<path d="M1915.07 852.902C1915.07 852.902 1796.05 876.667 1765.13 954.789C1735.68 1029.76 1614.39 1051.69 1614.39 1051.69" stroke="#E3EDFF" stroke-width="2" stroke-miterlimit="10"/>
<path d="M1915.07 805.637C1915.07 805.637 1761.13 833.734 1721.42 932.076C1683.43 1026.35 1526.96 1051.69 1526.96 1051.69" stroke="#E3EDFF" stroke-width="2" stroke-miterlimit="10"/>
<path d="M1915.07 758.238C1915.07 758.238 1726.22 790.669 1677.57 909.361C1631.06 1022.8 1439.4 1051.69 1439.4 1051.69" stroke="#E3EDFF" stroke-width="2" stroke-miterlimit="10"/>
<path d="M1915.07 710.971C1915.07 710.971 1691.43 747.865 1633.86 886.646C1578.94 1019.26 1351.97 1051.69 1351.97 1051.69" stroke="#E3EDFF" stroke-width="2" stroke-miterlimit="10"/>
<path d="M1915.07 663.705C1915.07 663.705 1656.51 704.932 1590 864.064C1526.56 1015.84 1264.27 1051.69 1264.27 1051.69" stroke="#E3EDFF" stroke-width="2" stroke-miterlimit="10"/>
<path d="M1915.07 616.307C1915.07 616.307 1621.59 661.867 1546.16 841.218C1474.32 1012.3 1176.71 1051.69 1176.71 1051.69" stroke="#E3EDFF" stroke-width="2" stroke-miterlimit="10"/>
<path d="M1915.07 569.039C1915.07 569.039 1586.81 618.932 1502.44 818.634C1422.08 1008.75 1089.15 1051.69 1089.15 1051.69" stroke="#E3EDFF" stroke-width="2" stroke-miterlimit="10"/>
<path d="M1915.07 521.773C1915.07 521.773 1551.89 576.13 1458.6 795.921C1369.83 1005.34 1001.72 1051.69 1001.72 1051.69" stroke="#E3EDFF" stroke-width="2" stroke-miterlimit="10"/>
<path d="M1915.07 474.375C1915.07 474.375 1516.97 533.065 1414.88 773.206C1317.58 1001.79 914.152 1051.69 914.152 1051.69" stroke="#E3EDFF" stroke-width="2" stroke-miterlimit="10"/>
<path d="M1915.07 427.107C1915.07 427.107 1482.18 490.13 1371.03 750.491C1265.34 998.38 826.59 1051.69 826.59 1051.69" stroke="#E3EDFF" stroke-width="2" stroke-miterlimit="10"/>
<path d="M1915.07 379.842C1915.07 379.842 1447.27 447.197 1327.32 727.778C1213.1 994.836 739.027 1051.69 739.027 1051.69" stroke="#E3EDFF" stroke-width="2" stroke-miterlimit="10"/>
<path d="M1915.07 332.443C1915.07 332.443 1412.35 404.263 1283.47 705.064C1160.85 991.291 651.598 1051.69 651.598 1051.69" stroke="#E3EDFF" stroke-width="2" stroke-miterlimit="10"/>
<path d="M1915.07 285.176C1915.07 285.176 1377.56 361.328 1239.75 682.348C1108.6 987.876 564.031 1051.69 564.031 1051.69" stroke="#E3EDFF" stroke-width="2" stroke-miterlimit="10"/>
<path d="M1915.07 237.91C1915.07 237.91 1342.64 318.395 1195.9 659.767C1056.36 984.332 476.469 1051.69 476.469 1051.69" stroke="#E3EDFF" stroke-width="2" stroke-miterlimit="10"/>
<path d="M1915.07 190.512C1915.07 190.512 1307.72 275.461 1152.06 636.921C1004.12 980.787 388.906 1051.69 388.906 1051.69" stroke="#E3EDFF" stroke-width="2" stroke-miterlimit="10"/>
<path d="M1915.07 143.244C1915.07 143.244 1272.94 232.526 1108.34 614.337C951.873 977.372 301.344 1051.69 301.344 1051.69" stroke="#E3EDFF" stroke-width="2" stroke-miterlimit="10"/>
<path d="M1915.07 95.9775C1915.07 95.9775 1238.02 189.592 1064.49 591.623C899.628 973.828 213.914 1051.69 213.914 1051.69" stroke="#E3EDFF" stroke-width="2" stroke-miterlimit="10"/>
<path d="M1915.07 48.5791C1915.07 48.5791 1203.1 146.526 1020.78 568.908C847.247 970.282 126.348 1051.69 126.348 1051.69" stroke="#E3EDFF" stroke-width="2" stroke-miterlimit="10"/>
<path d="M1915.07 1.3125C1915.07 1.3125 1168.31 103.724 976.928 546.194C795.003 966.869 38.7852 1051.69 38.7852 1051.69" stroke="#E3EDFF" stroke-width="2" stroke-miterlimit="10"/>
</svg>
