<svg width="18" height="26" viewBox="0 0 18 26" fill="none" xmlns="http://www.w3.org/2000/svg">
<path d="M10.9883 25.7002C11.5008 25.7002 11.9046 25.5168 12.2119 25.1533V25.1543C12.5166 24.7924 12.7002 24.2181 12.7002 23.3701V13.5244C11.8079 14 10.7983 14.2627 9.7373 14.2627C9.58888 14.2627 9.44448 14.2573 9.2998 14.249V23.3711C9.29985 24.2048 9.48364 24.7795 9.78809 25.1406L9.78711 25.1416C10.1122 25.5232 10.4945 25.7002 10.9883 25.7002Z" stroke="#535353" stroke-width="0.6"/>
<path d="M0.800781 9.97852C1.27248 8.81047 1.83626 7.69484 2.55762 6.6123L2.5625 6.60547C5.3392 2.67138 9.85472 0.0781356 14.667 1.50684L14.6748 1.50977C15.5679 1.8023 16.3608 2.22388 17.1426 2.71777L17.1514 2.72363C17.2237 2.7728 17.3977 2.90293 17.5781 3.01172C17.3685 2.60392 17.0006 2.23189 16.6309 1.89844C14.3786 0.0225033 11.3585 -0.0458632 8.66016 0.889648C4.77243 2.45295 2.04899 5.85899 0.800781 9.97852Z" stroke="#535353" stroke-width="0.6"/>
<path d="M7.65234 9.95117C8.44575 11.5257 10.3737 12.1548 11.9482 11.3486L11.9502 11.3477C13.5248 10.5549 14.1555 8.62683 13.3486 7.05176L13.3477 7.0498C12.5553 5.47489 10.6266 4.84476 9.05078 5.65137L9.04883 5.65234C7.476 6.44632 6.84465 8.37346 7.65137 9.94922L7.65234 9.95117Z" stroke="#535353" stroke-width="0.6"/>
</svg>
