<svg width="32" height="32" viewBox="0 0 32 32" fill="none" xmlns="http://www.w3.org/2000/svg">
<path d="M22.0913 27.711C21.9766 27.711 21.8666 27.6654 21.7855 27.5843C21.7044 27.5032 21.6588 27.3933 21.6588 27.2786V4.30689L16.1782 2.00765L11.5758 3.81824V27.2786C11.5758 27.3933 11.5302 27.5032 11.4491 27.5843C11.368 27.6654 11.2581 27.711 11.1434 27.711C11.0287 27.711 10.9187 27.6654 10.8376 27.5843C10.7565 27.5032 10.7109 27.3933 10.7109 27.2786V3.52332C10.7109 3.43644 10.737 3.35157 10.7859 3.27975C10.8348 3.20794 10.9042 3.15253 10.9851 3.12073L16.0251 1.13803C16.1299 1.09671 16.2468 1.09795 16.3507 1.14149L22.2586 3.62062C22.3372 3.65358 22.4042 3.70901 22.4514 3.77994C22.4985 3.85087 22.5237 3.93415 22.5237 4.01932V27.2786C22.5237 27.3933 22.4781 27.5032 22.397 27.5843C22.3159 27.6654 22.206 27.711 22.0913 27.711Z" fill="#535353"/>
<path d="M16.1824 27.7112C16.0677 27.7112 15.9578 27.6657 15.8767 27.5846C15.7956 27.5035 15.75 27.3935 15.75 27.2788V1.54083C15.75 1.42614 15.7956 1.31615 15.8767 1.23505C15.9578 1.15396 16.0677 1.1084 16.1824 1.1084C16.2971 1.1084 16.4071 1.15396 16.4882 1.23505C16.5693 1.31615 16.6149 1.42614 16.6149 1.54083V27.2788C16.6149 27.3935 16.5693 27.5035 16.4882 27.5846C16.4071 27.6657 16.2971 27.7112 16.1824 27.7112Z" fill="#535353"/>
<path d="M2.26056 27.7109C2.14587 27.7109 2.03588 27.6653 1.95478 27.5842C1.87368 27.5031 1.82812 27.3932 1.82812 27.2785V13.8104C1.82812 13.6957 1.87368 13.5857 1.95478 13.5046C2.03588 13.4235 2.14587 13.3779 2.26056 13.3779H11.1432C11.2578 13.3779 11.3678 13.4235 11.4489 13.5046C11.53 13.5857 11.5756 13.6957 11.5756 13.8104C11.5756 13.9251 11.53 14.035 11.4489 14.1161C11.3678 14.1972 11.2578 14.2428 11.1432 14.2428H2.69299V27.2785C2.69299 27.3932 2.64743 27.5031 2.56633 27.5842C2.48524 27.6653 2.37525 27.7109 2.26056 27.7109Z" fill="#535353"/>
<path d="M4.64041 15.9039H3.72149C3.60681 15.9039 3.49682 15.8584 3.41572 15.7773C3.33462 15.6962 3.28906 15.5862 3.28906 15.4715C3.28906 15.3568 3.33462 15.2468 3.41572 15.1657C3.49682 15.0846 3.60681 15.0391 3.72149 15.0391H4.64041C4.7551 15.0391 4.86509 15.0846 4.94619 15.1657C5.02729 15.2468 5.07285 15.3568 5.07285 15.4715C5.07285 15.5862 5.02729 15.6962 4.94619 15.7773C4.86509 15.8584 4.7551 15.9039 4.64041 15.9039Z" fill="#535353"/>
<path d="M7.16233 15.904H6.24298C6.12829 15.904 6.0183 15.8584 5.9372 15.7773C5.85611 15.6962 5.81055 15.5862 5.81055 15.4716C5.81055 15.3569 5.85611 15.2469 5.9372 15.1658C6.0183 15.0847 6.12829 15.0391 6.24298 15.0391H7.16233C7.27702 15.0391 7.38701 15.0847 7.46811 15.1658C7.5492 15.2469 7.59476 15.3569 7.59476 15.4716C7.59476 15.5862 7.5492 15.6962 7.46811 15.7773C7.38701 15.8584 7.27702 15.904 7.16233 15.904Z" fill="#535353"/>
<path d="M9.68338 15.9039H8.76446C8.64978 15.9039 8.53979 15.8584 8.45869 15.7773C8.37759 15.6962 8.33203 15.5862 8.33203 15.4715C8.33203 15.3568 8.37759 15.2468 8.45869 15.1657C8.53979 15.0846 8.64978 15.0391 8.76446 15.0391H9.68338C9.79807 15.0391 9.90806 15.0846 9.98916 15.1657C10.0703 15.2468 10.1158 15.3568 10.1158 15.4715C10.1158 15.5862 10.0703 15.6962 9.98916 15.7773C9.90806 15.8584 9.79807 15.9039 9.68338 15.9039Z" fill="#535353"/>
<path d="M4.64041 17.9332H3.72149C3.60681 17.9332 3.49682 17.8877 3.41572 17.8066C3.33462 17.7255 3.28906 17.6155 3.28906 17.5008C3.28906 17.3861 3.33462 17.2761 3.41572 17.195C3.49682 17.1139 3.60681 17.0684 3.72149 17.0684H4.64041C4.7551 17.0684 4.86509 17.1139 4.94619 17.195C5.02729 17.2761 5.07285 17.3861 5.07285 17.5008C5.07285 17.6155 5.02729 17.7255 4.94619 17.8066C4.86509 17.8877 4.7551 17.9332 4.64041 17.9332Z" fill="#535353"/>
<path d="M7.16233 17.9334H6.24298C6.12829 17.9334 6.0183 17.8878 5.9372 17.8068C5.85611 17.7257 5.81055 17.6157 5.81055 17.501C5.81055 17.3863 5.85611 17.2763 5.9372 17.1952C6.0183 17.1141 6.12829 17.0685 6.24298 17.0685H7.16233C7.27702 17.0685 7.38701 17.1141 7.46811 17.1952C7.5492 17.2763 7.59476 17.3863 7.59476 17.501C7.59476 17.6157 7.5492 17.7257 7.46811 17.8068C7.38701 17.8878 7.27702 17.9334 7.16233 17.9334Z" fill="#535353"/>
<path d="M9.68338 17.9332H8.76446C8.64978 17.9332 8.53979 17.8877 8.45869 17.8066C8.37759 17.7255 8.33203 17.6155 8.33203 17.5008C8.33203 17.3861 8.37759 17.2761 8.45869 17.195C8.53979 17.1139 8.64978 17.0684 8.76446 17.0684H9.68338C9.79807 17.0684 9.90806 17.1139 9.98916 17.195C10.0703 17.2761 10.1158 17.3861 10.1158 17.5008C10.1158 17.6155 10.0703 17.7255 9.98916 17.8066C9.90806 17.8877 9.79807 17.9332 9.68338 17.9332Z" fill="#535353"/>
<path d="M4.64041 19.9625H3.72149C3.60681 19.9625 3.49682 19.917 3.41572 19.8359C3.33462 19.7548 3.28906 19.6448 3.28906 19.5301C3.28906 19.4154 3.33462 19.3054 3.41572 19.2243C3.49682 19.1432 3.60681 19.0977 3.72149 19.0977H4.64041C4.7551 19.0977 4.86509 19.1432 4.94619 19.2243C5.02729 19.3054 5.07285 19.4154 5.07285 19.5301C5.07285 19.6448 5.02729 19.7548 4.94619 19.8359C4.86509 19.917 4.7551 19.9625 4.64041 19.9625Z" fill="#535353"/>
<path d="M7.16233 19.9624H6.24298C6.12829 19.9624 6.0183 19.9168 5.9372 19.8357C5.85611 19.7546 5.81055 19.6447 5.81055 19.53C5.81055 19.4153 5.85611 19.3053 5.9372 19.2242C6.0183 19.1431 6.12829 19.0975 6.24298 19.0975H7.16233C7.27702 19.0975 7.38701 19.1431 7.46811 19.2242C7.5492 19.3053 7.59476 19.4153 7.59476 19.53C7.59476 19.6447 7.5492 19.7546 7.46811 19.8357C7.38701 19.9168 7.27702 19.9624 7.16233 19.9624Z" fill="#535353"/>
<path d="M9.68338 19.9625H8.76446C8.64978 19.9625 8.53979 19.917 8.45869 19.8359C8.37759 19.7548 8.33203 19.6448 8.33203 19.5301C8.33203 19.4154 8.37759 19.3054 8.45869 19.2243C8.53979 19.1432 8.64978 19.0977 8.76446 19.0977H9.68338C9.79807 19.0977 9.90806 19.1432 9.98916 19.2243C10.0703 19.3054 10.1158 19.4154 10.1158 19.5301C10.1158 19.6448 10.0703 19.7548 9.98916 19.8359C9.90806 19.917 9.79807 19.9625 9.68338 19.9625Z" fill="#535353"/>
<path d="M4.64041 21.9918H3.72149C3.60681 21.9918 3.49682 21.9463 3.41572 21.8652C3.33462 21.7841 3.28906 21.6741 3.28906 21.5594C3.28906 21.4447 3.33462 21.3347 3.41572 21.2536C3.49682 21.1725 3.60681 21.127 3.72149 21.127H4.64041C4.7551 21.127 4.86509 21.1725 4.94619 21.2536C5.02729 21.3347 5.07285 21.4447 5.07285 21.5594C5.07285 21.6741 5.02729 21.7841 4.94619 21.8652C4.86509 21.9463 4.7551 21.9918 4.64041 21.9918Z" fill="#535353"/>
<path d="M7.16233 21.9918H6.24298C6.12829 21.9918 6.0183 21.9462 5.9372 21.8651C5.85611 21.784 5.81055 21.674 5.81055 21.5593C5.81055 21.4446 5.85611 21.3346 5.9372 21.2535C6.0183 21.1725 6.12829 21.1269 6.24298 21.1269H7.16233C7.27702 21.1269 7.38701 21.1725 7.46811 21.2535C7.5492 21.3346 7.59476 21.4446 7.59476 21.5593C7.59476 21.674 7.5492 21.784 7.46811 21.8651C7.38701 21.9462 7.27702 21.9918 7.16233 21.9918Z" fill="#535353"/>
<path d="M9.68338 21.9918H8.76446C8.64978 21.9918 8.53979 21.9463 8.45869 21.8652C8.37759 21.7841 8.33203 21.6741 8.33203 21.5594C8.33203 21.4447 8.37759 21.3347 8.45869 21.2536C8.53979 21.1725 8.64978 21.127 8.76446 21.127H9.68338C9.79807 21.127 9.90806 21.1725 9.98916 21.2536C10.0703 21.3347 10.1158 21.4447 10.1158 21.5594C10.1158 21.6741 10.0703 21.7841 9.98916 21.8652C9.90806 21.9463 9.79807 21.9918 9.68338 21.9918Z" fill="#535353"/>
<path d="M4.64041 24.0211H3.72149C3.60681 24.0211 3.49682 23.9756 3.41572 23.8945C3.33462 23.8134 3.28906 23.7034 3.28906 23.5887C3.28906 23.474 3.33462 23.364 3.41572 23.2829C3.49682 23.2018 3.60681 23.1562 3.72149 23.1562H4.64041C4.7551 23.1562 4.86509 23.2018 4.94619 23.2829C5.02729 23.364 5.07285 23.474 5.07285 23.5887C5.07285 23.7034 5.02729 23.8134 4.94619 23.8945C4.86509 23.9756 4.7551 24.0211 4.64041 24.0211Z" fill="#535353"/>
<path d="M7.16233 24.0212H6.24298C6.12829 24.0212 6.0183 23.9756 5.9372 23.8945C5.85611 23.8134 5.81055 23.7034 5.81055 23.5887C5.81055 23.4741 5.85611 23.3641 5.9372 23.283C6.0183 23.2019 6.12829 23.1563 6.24298 23.1563H7.16233C7.27702 23.1563 7.38701 23.2019 7.46811 23.283C7.5492 23.3641 7.59476 23.4741 7.59476 23.5887C7.59476 23.7034 7.5492 23.8134 7.46811 23.8945C7.38701 23.9756 7.27702 24.0212 7.16233 24.0212Z" fill="#535353"/>
<path d="M9.68338 24.0211H8.76446C8.64978 24.0211 8.53979 23.9756 8.45869 23.8945C8.37759 23.8134 8.33203 23.7034 8.33203 23.5887C8.33203 23.474 8.37759 23.364 8.45869 23.2829C8.53979 23.2018 8.64978 23.1562 8.76446 23.1562H9.68338C9.79807 23.1562 9.90806 23.2018 9.98916 23.2829C10.0703 23.364 10.1158 23.474 10.1158 23.5887C10.1158 23.7034 10.0703 23.8134 9.98916 23.8945C9.90806 23.9756 9.79807 24.0211 9.68338 24.0211Z" fill="#535353"/>
<path d="M4.64041 26.0504H3.72149C3.60681 26.0504 3.49682 26.0049 3.41572 25.9238C3.33462 25.8427 3.28906 25.7327 3.28906 25.618C3.28906 25.5033 3.33462 25.3933 3.41572 25.3122C3.49682 25.2311 3.60681 25.1855 3.72149 25.1855H4.64041C4.7551 25.1855 4.86509 25.2311 4.94619 25.3122C5.02729 25.3933 5.07285 25.5033 5.07285 25.618C5.07285 25.7327 5.02729 25.8427 4.94619 25.9238C4.86509 26.0049 4.7551 26.0504 4.64041 26.0504Z" fill="#535353"/>
<path d="M7.16233 26.0506H6.24298C6.12829 26.0506 6.0183 26.005 5.9372 25.9239C5.85611 25.8428 5.81055 25.7329 5.81055 25.6182C5.81055 25.5035 5.85611 25.3935 5.9372 25.3124C6.0183 25.2313 6.12829 25.1857 6.24298 25.1857H7.16233C7.27702 25.1857 7.38701 25.2313 7.46811 25.3124C7.5492 25.3935 7.59476 25.5035 7.59476 25.6182C7.59476 25.7329 7.5492 25.8428 7.46811 25.9239C7.38701 26.005 7.27702 26.0506 7.16233 26.0506Z" fill="#535353"/>
<path d="M9.68338 26.0504H8.76446C8.64978 26.0504 8.53979 26.0049 8.45869 25.9238C8.37759 25.8427 8.33203 25.7327 8.33203 25.618C8.33203 25.5033 8.37759 25.3933 8.45869 25.3122C8.53979 25.2311 8.64978 25.1855 8.76446 25.1855H9.68338C9.79807 25.1855 9.90806 25.2311 9.98916 25.3122C10.0703 25.3933 10.1158 25.5033 10.1158 25.618C10.1158 25.7327 10.0703 25.8427 9.98916 25.9238C9.90806 26.0049 9.79807 26.0504 9.68338 26.0504Z" fill="#535353"/>
<path d="M14.659 5.77364C14.5443 5.77364 14.4343 5.72808 14.3532 5.64698C14.2721 5.56588 14.2266 5.45589 14.2266 5.34121V4.52521C14.2266 4.41052 14.2721 4.30053 14.3532 4.21943C14.4343 4.13833 14.5443 4.09277 14.659 4.09277C14.7737 4.09277 14.8837 4.13833 14.9648 4.21943C15.0459 4.30053 15.0914 4.41052 15.0914 4.52521V5.34121C15.0914 5.45589 15.0459 5.56588 14.9648 5.64698C14.8837 5.72808 14.7737 5.77364 14.659 5.77364Z" fill="#535353"/>
<path d="M12.6863 6.27657C12.5717 6.27657 12.4617 6.23101 12.3806 6.14991C12.2995 6.06881 12.2539 5.95882 12.2539 5.84414V5.02814C12.2539 4.91345 12.2995 4.80346 12.3806 4.72236C12.4617 4.64126 12.5717 4.5957 12.6863 4.5957C12.801 4.5957 12.911 4.64126 12.9921 4.72236C13.0732 4.80346 13.1188 4.91345 13.1188 5.02814V5.84414C13.1188 5.95882 13.0732 6.06881 12.9921 6.14991C12.911 6.23101 12.801 6.27657 12.6863 6.27657Z" fill="#535353"/>
<path d="M14.659 9.02657C14.5443 9.02657 14.4343 8.98101 14.3532 8.89991C14.2721 8.81881 14.2266 8.70882 14.2266 8.59414V7.77814C14.2266 7.66345 14.2721 7.55346 14.3532 7.47236C14.4343 7.39126 14.5443 7.3457 14.659 7.3457C14.7737 7.3457 14.8837 7.39126 14.9648 7.47236C15.0459 7.55346 15.0914 7.66345 15.0914 7.77814V8.59414C15.0914 8.70882 15.0459 8.81881 14.9648 8.89991C14.8837 8.98101 14.7737 9.02657 14.659 9.02657Z" fill="#535353"/>
<path d="M12.6863 9.5295C12.5717 9.5295 12.4617 9.48394 12.3806 9.40284C12.2995 9.32174 12.2539 9.21175 12.2539 9.09707V8.28107C12.2539 8.16638 12.2995 8.05639 12.3806 7.97529C12.4617 7.89419 12.5717 7.84863 12.6863 7.84863C12.801 7.84863 12.911 7.89419 12.9921 7.97529C13.0732 8.05639 13.1188 8.16638 13.1188 8.28107V9.09707C13.1188 9.21175 13.0732 9.32174 12.9921 9.40284C12.911 9.48394 12.801 9.5295 12.6863 9.5295Z" fill="#535353"/>
<path d="M14.659 12.2812C14.5443 12.2812 14.4343 12.2357 14.3532 12.1546C14.2721 12.0735 14.2266 11.9635 14.2266 11.8488V11.0311C14.2266 10.9164 14.2721 10.8064 14.3532 10.7253C14.4343 10.6442 14.5443 10.5986 14.659 10.5986C14.7737 10.5986 14.8837 10.6442 14.9648 10.7253C15.0459 10.8064 15.0914 10.9164 15.0914 11.0311V11.8488C15.0914 11.9635 15.0459 12.0735 14.9648 12.1546C14.8837 12.2357 14.7737 12.2812 14.659 12.2812Z" fill="#535353"/>
<path d="M12.6863 12.7824C12.5717 12.7824 12.4617 12.7369 12.3806 12.6558C12.2995 12.5747 12.2539 12.4647 12.2539 12.35V11.534C12.2539 11.4193 12.2995 11.3093 12.3806 11.2282C12.4617 11.1471 12.5717 11.1016 12.6863 11.1016C12.801 11.1016 12.911 11.1471 12.9921 11.2282C13.0732 11.3093 13.1188 11.4193 13.1188 11.534V12.35C13.1188 12.4647 13.0732 12.5747 12.9921 12.6558C12.911 12.7369 12.801 12.7824 12.6863 12.7824Z" fill="#535353"/>
<path d="M14.659 15.5315C14.5443 15.5315 14.4343 15.4859 14.3532 15.4048C14.2721 15.3237 14.2266 15.2137 14.2266 15.099V14.283C14.2266 14.1683 14.2721 14.0583 14.3532 13.9772C14.4343 13.8961 14.5443 13.8506 14.659 13.8506C14.7737 13.8506 14.8837 13.8961 14.9648 13.9772C15.0459 14.0583 15.0914 14.1683 15.0914 14.283V15.099C15.0914 15.2137 15.0459 15.3237 14.9648 15.4048C14.8837 15.4859 14.7737 15.5315 14.659 15.5315Z" fill="#535353"/>
<path d="M12.6863 16.0344C12.5717 16.0344 12.4617 15.9888 12.3806 15.9077C12.2995 15.8266 12.2539 15.7166 12.2539 15.6019V14.7859C12.2539 14.6713 12.2995 14.5613 12.3806 14.4802C12.4617 14.3991 12.5717 14.3535 12.6863 14.3535C12.801 14.3535 12.911 14.3991 12.9921 14.4802C13.0732 14.5613 13.1188 14.6713 13.1188 14.7859V15.6019C13.1188 15.7166 13.0732 15.8266 12.9921 15.9077C12.911 15.9888 12.801 16.0344 12.6863 16.0344Z" fill="#535353"/>
<path d="M14.659 18.7844C14.5443 18.7844 14.4343 18.7388 14.3532 18.6577C14.2721 18.5766 14.2266 18.4666 14.2266 18.3519V17.5359C14.2266 17.4213 14.2721 17.3113 14.3532 17.2302C14.4343 17.1491 14.5443 17.1035 14.659 17.1035C14.7737 17.1035 14.8837 17.1491 14.9648 17.2302C15.0459 17.3113 15.0914 17.4213 15.0914 17.5359V18.3519C15.0914 18.4666 15.0459 18.5766 14.9648 18.6577C14.8837 18.7388 14.7737 18.7844 14.659 18.7844Z" fill="#535353"/>
<path d="M12.6863 19.2864C12.5717 19.2864 12.4617 19.2409 12.3806 19.1598C12.2995 19.0787 12.2539 18.9687 12.2539 18.854V18.0389C12.2539 17.9242 12.2995 17.8142 12.3806 17.7331C12.4617 17.652 12.5717 17.6064 12.6863 17.6064C12.801 17.6064 12.911 17.652 12.9921 17.7331C13.0732 17.8142 13.1188 17.9242 13.1188 18.0389V18.854C13.1188 18.9687 13.0732 19.0787 12.9921 19.1598C12.911 19.2409 12.801 19.2864 12.6863 19.2864Z" fill="#535353"/>
<path d="M14.659 22.0373C14.5443 22.0373 14.4343 21.9917 14.3532 21.9107C14.2721 21.8296 14.2266 21.7196 14.2266 21.6049V20.7889C14.2266 20.6742 14.2721 20.5642 14.3532 20.4831C14.4343 20.402 14.5443 20.3564 14.659 20.3564C14.7737 20.3564 14.8837 20.402 14.9648 20.4831C15.0459 20.5642 15.0914 20.6742 15.0914 20.7889V21.6049C15.0914 21.7196 15.0459 21.8296 14.9648 21.9107C14.8837 21.9917 14.7737 22.0373 14.659 22.0373Z" fill="#535353"/>
<path d="M12.6863 22.5402C12.5717 22.5402 12.4617 22.4947 12.3806 22.4136C12.2995 22.3325 12.2539 22.2225 12.2539 22.1078V21.2918C12.2539 21.1771 12.2995 21.0671 12.3806 20.986C12.4617 20.9049 12.5717 20.8594 12.6863 20.8594C12.801 20.8594 12.911 20.9049 12.9921 20.986C13.0732 21.0671 13.1188 21.1771 13.1188 21.2918V22.1078C13.1188 22.2225 13.0732 22.3325 12.9921 22.4136C12.911 22.4947 12.801 22.5402 12.6863 22.5402Z" fill="#535353"/>
<path d="M14.659 25.2895C14.5443 25.2895 14.4343 25.244 14.3532 25.1629C14.2721 25.0818 14.2266 24.9718 14.2266 24.8571V24.0433C14.2266 23.9286 14.2721 23.8186 14.3532 23.7375C14.4343 23.6564 14.5443 23.6108 14.659 23.6108C14.7737 23.6108 14.8837 23.6564 14.9648 23.7375C15.0459 23.8186 15.0914 23.9286 15.0914 24.0433V24.8593C15.0909 24.9736 15.045 25.083 14.964 25.1637C14.883 25.2443 14.7733 25.2895 14.659 25.2895Z" fill="#535353"/>
<path d="M12.6863 25.7926C12.5717 25.7926 12.4617 25.7471 12.3806 25.666C12.2995 25.5849 12.2539 25.4749 12.2539 25.3602V24.5438C12.2539 24.4291 12.2995 24.3191 12.3806 24.238C12.4617 24.1569 12.5717 24.1113 12.6863 24.1113C12.801 24.1113 12.911 24.1569 12.9921 24.238C13.0732 24.3191 13.1188 24.4291 13.1188 24.5438V25.3598C13.1188 25.4166 13.1077 25.4729 13.086 25.5254C13.0643 25.5779 13.0324 25.6256 12.9923 25.6658C12.9521 25.706 12.9044 25.7379 12.8519 25.7597C12.7994 25.7814 12.7432 25.7926 12.6863 25.7926Z" fill="#535353"/>
<path d="M17.6434 5.36219C17.5287 5.36219 17.4187 5.31663 17.3376 5.23553C17.2565 5.15444 17.2109 5.04445 17.2109 4.92976V4.11462C17.2109 3.99993 17.2565 3.88994 17.3376 3.80885C17.4187 3.72775 17.5287 3.68219 17.6434 3.68219C17.7581 3.68219 17.868 3.72775 17.9491 3.80885C18.0302 3.88994 18.0758 3.99993 18.0758 4.11462V4.92976C18.0758 5.04445 18.0302 5.15444 17.9491 5.23553C17.868 5.31663 17.7581 5.36219 17.6434 5.36219Z" fill="#535353"/>
<path d="M19.1043 5.91353C18.9896 5.91353 18.8796 5.86797 18.7985 5.78687C18.7174 5.70577 18.6719 5.59578 18.6719 5.48109V4.66553C18.6719 4.55084 18.7174 4.44085 18.7985 4.35975C18.8796 4.27865 18.9896 4.23309 19.1043 4.23309C19.219 4.23309 19.329 4.27865 19.4101 4.35975C19.4912 4.44085 19.5367 4.55084 19.5367 4.66553V5.48153C19.5366 5.59614 19.491 5.70602 19.4099 5.78702C19.3288 5.86803 19.2189 5.91353 19.1043 5.91353Z" fill="#535353"/>
<path d="M20.5633 6.46461C20.4486 6.46461 20.3386 6.41905 20.2575 6.33796C20.1764 6.25686 20.1309 6.14687 20.1309 6.03218V5.21661C20.1309 5.10192 20.1764 4.99193 20.2575 4.91084C20.3386 4.82974 20.4486 4.78418 20.5633 4.78418C20.678 4.78418 20.788 4.82974 20.8691 4.91084C20.9502 4.99193 20.9957 5.10192 20.9957 5.21661V6.03261C20.9956 6.14723 20.95 6.25711 20.8689 6.33811C20.7878 6.41911 20.6779 6.46461 20.5633 6.46461Z" fill="#535353"/>
<path d="M17.6434 8.60538C17.5287 8.60538 17.4187 8.55982 17.3376 8.47872C17.2565 8.39763 17.2109 8.28764 17.2109 8.17295V7.35565C17.2109 7.24096 17.2565 7.13097 17.3376 7.04987C17.4187 6.96878 17.5287 6.92322 17.6434 6.92322C17.7581 6.92322 17.868 6.96878 17.9491 7.04987C18.0302 7.13097 18.0758 7.24096 18.0758 7.35565V8.17295C18.0758 8.28764 18.0302 8.39763 17.9491 8.47872C17.868 8.55982 17.7581 8.60538 17.6434 8.60538Z" fill="#535353"/>
<path d="M19.1043 9.15461C18.9896 9.15461 18.8796 9.10906 18.7985 9.02796C18.7174 8.94686 18.6719 8.83687 18.6719 8.72218V7.90661C18.6719 7.79193 18.7174 7.68194 18.7985 7.60084C18.8796 7.51974 18.9896 7.47418 19.1043 7.47418C19.219 7.47418 19.329 7.51974 19.4101 7.60084C19.4912 7.68194 19.5367 7.79193 19.5367 7.90661V8.72218C19.5367 8.83687 19.4912 8.94686 19.4101 9.02796C19.329 9.10906 19.219 9.15461 19.1043 9.15461Z" fill="#535353"/>
<path d="M20.5633 9.70533C20.4486 9.70533 20.3386 9.65977 20.2575 9.57868C20.1764 9.49758 20.1309 9.38759 20.1309 9.2729V8.45733C20.1309 8.34265 20.1764 8.23266 20.2575 8.15156C20.3386 8.07046 20.4486 8.0249 20.5633 8.0249C20.678 8.0249 20.788 8.07046 20.8691 8.15156C20.9502 8.23266 20.9957 8.34265 20.9957 8.45733V9.27333C20.9956 9.38795 20.95 9.49783 20.8689 9.57883C20.7878 9.65983 20.6779 9.70533 20.5633 9.70533Z" fill="#535353"/>
<path d="M17.6434 11.8452C17.5287 11.8452 17.4187 11.7996 17.3376 11.7185C17.2565 11.6374 17.2109 11.5275 17.2109 11.4128V10.5946C17.2109 10.4799 17.2565 10.3699 17.3376 10.2888C17.4187 10.2077 17.5287 10.1622 17.6434 10.1622C17.7581 10.1622 17.868 10.2077 17.9491 10.2888C18.0302 10.3699 18.0758 10.4799 18.0758 10.5946V11.4106C18.0761 11.4676 18.0651 11.524 18.0435 11.5768C18.0219 11.6295 17.9901 11.6774 17.9499 11.7178C17.9097 11.7582 17.862 11.7902 17.8094 11.8121C17.7567 11.8339 17.7003 11.8452 17.6434 11.8452Z" fill="#535353"/>
<path d="M19.1043 12.3961C18.9896 12.3961 18.8796 12.3506 18.7985 12.2695C18.7174 12.1884 18.6719 12.0784 18.6719 11.9637V11.1477C18.6719 11.033 18.7174 10.923 18.7985 10.8419C18.8796 10.7608 18.9896 10.7153 19.1043 10.7153C19.219 10.7153 19.329 10.7608 19.4101 10.8419C19.4912 10.923 19.5367 11.033 19.5367 11.1477V11.9637C19.5367 12.0784 19.4912 12.1884 19.4101 12.2695C19.329 12.3506 19.219 12.3961 19.1043 12.3961Z" fill="#535353"/>
<path d="M20.5633 12.9465C20.4486 12.9465 20.3386 12.901 20.2575 12.8199C20.1764 12.7388 20.1309 12.6288 20.1309 12.5141V11.6985C20.1309 11.5839 20.1764 11.4739 20.2575 11.3928C20.3386 11.3117 20.4486 11.2661 20.5633 11.2661C20.678 11.2661 20.788 11.3117 20.8691 11.3928C20.9502 11.4739 20.9957 11.5839 20.9957 11.6985V12.5145C20.9956 12.6292 20.95 12.739 20.8689 12.82C20.7878 12.901 20.6779 12.9465 20.5633 12.9465Z" fill="#535353"/>
<path d="M17.6434 15.0863C17.5287 15.0863 17.4187 15.0407 17.3376 14.9596C17.2565 14.8785 17.2109 14.7685 17.2109 14.6538V13.8378C17.2109 13.7231 17.2565 13.6131 17.3376 13.5321C17.4187 13.451 17.5287 13.4054 17.6434 13.4054C17.7581 13.4054 17.868 13.451 17.9491 13.5321C18.0302 13.6131 18.0758 13.7231 18.0758 13.8378V14.6538C18.0758 14.7685 18.0302 14.8785 17.9491 14.9596C17.868 15.0407 17.7581 15.0863 17.6434 15.0863Z" fill="#535353"/>
<path d="M19.1043 15.6372C18.9896 15.6372 18.8796 15.5916 18.7985 15.5105C18.7174 15.4294 18.6719 15.3194 18.6719 15.2047V14.3887C18.6719 14.274 18.7174 14.1641 18.7985 14.083C18.8796 14.0019 18.9896 13.9563 19.1043 13.9563C19.219 13.9563 19.329 14.0019 19.4101 14.083C19.4912 14.1641 19.5367 14.274 19.5367 14.3887V15.2047C19.5367 15.3194 19.4912 15.4294 19.4101 15.5105C19.329 15.5916 19.219 15.6372 19.1043 15.6372Z" fill="#535353"/>
<path d="M20.5633 16.1882C20.4486 16.1882 20.3386 16.1426 20.2575 16.0615C20.1764 15.9804 20.1309 15.8704 20.1309 15.7558V14.9398C20.1309 14.8251 20.1764 14.7151 20.2575 14.634C20.3386 14.5529 20.4486 14.5073 20.5633 14.5073C20.678 14.5073 20.788 14.5529 20.8691 14.634C20.9502 14.7151 20.9957 14.8251 20.9957 14.9398V15.7558C20.9957 15.8704 20.9502 15.9804 20.8691 16.0615C20.788 16.1426 20.678 16.1882 20.5633 16.1882Z" fill="#535353"/>
<path d="M17.6434 18.3273C17.5287 18.3273 17.4187 18.2818 17.3376 18.2007C17.2565 18.1196 17.2109 18.0096 17.2109 17.8949V17.0811C17.2109 16.9664 17.2565 16.8564 17.3376 16.7753C17.4187 16.6942 17.5287 16.6486 17.6434 16.6486C17.7581 16.6486 17.868 16.6942 17.9491 16.7753C18.0302 16.8564 18.0758 16.9664 18.0758 17.0811V17.8971C18.0752 18.0114 18.0294 18.1208 17.9484 18.2014C17.8673 18.2821 17.7577 18.3273 17.6434 18.3273Z" fill="#535353"/>
<path d="M19.1043 18.8783C18.9896 18.8783 18.8796 18.8327 18.7985 18.7516C18.7174 18.6705 18.6719 18.5605 18.6719 18.4458V17.6298C18.6719 17.5151 18.7174 17.4051 18.7985 17.324C18.8796 17.2429 18.9896 17.1974 19.1043 17.1974C19.219 17.1974 19.329 17.2429 19.4101 17.324C19.4912 17.4051 19.5367 17.5151 19.5367 17.6298V18.4458C19.5367 18.5605 19.4912 18.6705 19.4101 18.7516C19.329 18.8327 19.219 18.8783 19.1043 18.8783Z" fill="#535353"/>
<path d="M20.5633 19.4294C20.4486 19.4294 20.3386 19.3838 20.2575 19.3027C20.1764 19.2216 20.1309 19.1117 20.1309 18.997V18.181C20.1309 18.0663 20.1764 17.9563 20.2575 17.8752C20.3386 17.7941 20.4486 17.7485 20.5633 17.7485C20.678 17.7485 20.788 17.7941 20.8691 17.8752C20.9502 17.9563 20.9957 18.0663 20.9957 18.181V18.997C20.9957 19.1117 20.9502 19.2216 20.8691 19.3027C20.788 19.3838 20.678 19.4294 20.5633 19.4294Z" fill="#535353"/>
<path d="M17.6434 21.5684C17.5287 21.5684 17.4187 21.5229 17.3376 21.4418C17.2565 21.3607 17.2109 21.2507 17.2109 21.136V20.32C17.2109 20.2053 17.2565 20.0953 17.3376 20.0142C17.4187 19.9331 17.5287 19.8876 17.6434 19.8876C17.7581 19.8876 17.868 19.9331 17.9491 20.0142C18.0302 20.0953 18.0758 20.2053 18.0758 20.32V21.136C18.0758 21.2507 18.0302 21.3607 17.9491 21.4418C17.868 21.5229 17.7581 21.5684 17.6434 21.5684Z" fill="#535353"/>
<path d="M19.1043 22.1193C18.9896 22.1193 18.8796 22.0738 18.7985 21.9927C18.7174 21.9116 18.6719 21.8016 18.6719 21.6869V20.8709C18.6719 20.7562 18.7174 20.6462 18.7985 20.5651C18.8796 20.484 18.9896 20.4385 19.1043 20.4385C19.219 20.4385 19.329 20.484 19.4101 20.5651C19.4912 20.6462 19.5367 20.7562 19.5367 20.8709V21.6869C19.5367 21.8016 19.4912 21.9116 19.4101 21.9927C19.329 22.0738 19.219 22.1193 19.1043 22.1193Z" fill="#535353"/>
<path d="M20.5633 22.6701C20.4486 22.6701 20.3386 22.6246 20.2575 22.5435C20.1764 22.4624 20.1309 22.3524 20.1309 22.2377V21.4217C20.1309 21.307 20.1764 21.197 20.2575 21.1159C20.3386 21.0348 20.4486 20.9893 20.5633 20.9893C20.678 20.9893 20.788 21.0348 20.8691 21.1159C20.9502 21.197 20.9957 21.307 20.9957 21.4217V22.2377C20.9957 22.3524 20.9502 22.4624 20.8691 22.5435C20.788 22.6246 20.678 22.6701 20.5633 22.6701Z" fill="#535353"/>
<path d="M17.6434 24.8095C17.5287 24.8095 17.4187 24.764 17.3376 24.6829C17.2565 24.6018 17.2109 24.4918 17.2109 24.3771V23.5611C17.2109 23.4464 17.2565 23.3364 17.3376 23.2553C17.4187 23.1742 17.5287 23.1287 17.6434 23.1287C17.7581 23.1287 17.868 23.1742 17.9491 23.2553C18.0302 23.3364 18.0758 23.4464 18.0758 23.5611V24.3771C18.0758 24.4918 18.0302 24.6018 17.9491 24.6829C17.868 24.764 17.7581 24.8095 17.6434 24.8095Z" fill="#535353"/>
<path d="M19.1043 25.3604C18.9896 25.3604 18.8796 25.3149 18.7985 25.2338C18.7174 25.1527 18.6719 25.0427 18.6719 24.928V24.112C18.6719 23.9973 18.7174 23.8873 18.7985 23.8062C18.8796 23.7251 18.9896 23.6796 19.1043 23.6796C19.219 23.6796 19.329 23.7251 19.4101 23.8062C19.4912 23.8873 19.5367 23.9973 19.5367 24.112V24.928C19.5367 25.0427 19.4912 25.1527 19.4101 25.2338C19.329 25.3149 19.219 25.3604 19.1043 25.3604Z" fill="#535353"/>
<path d="M20.5633 25.9113C20.4486 25.9113 20.3386 25.8658 20.2575 25.7847C20.1764 25.7036 20.1309 25.5936 20.1309 25.4789V24.6629C20.1309 24.5482 20.1764 24.4382 20.2575 24.3571C20.3386 24.276 20.4486 24.2305 20.5633 24.2305C20.678 24.2305 20.788 24.276 20.8691 24.3571C20.9502 24.4382 20.9957 24.5482 20.9957 24.6629V25.4789C20.9957 25.5936 20.9502 25.7036 20.8691 25.7847C20.788 25.8658 20.678 25.9113 20.5633 25.9113Z" fill="#535353"/>
<path d="M22.6857 28H1.31429C1.23093 28 1.15099 27.9473 1.09205 27.8536C1.03311 27.7598 1 27.6326 1 27.5C1 27.3674 1.03311 27.2402 1.09205 27.1464C1.15099 27.0527 1.23093 27 1.31429 27H22.6857C22.7691 27 22.849 27.0527 22.9079 27.1464C22.9669 27.2402 23 27.3674 23 27.5C23 27.6326 22.9669 27.7598 22.9079 27.8536C22.849 27.9473 22.7691 28 22.6857 28Z" fill="#535353"/>
</svg>
